<?xml version="1.0" encoding="utf-8"?>
<!-- Generator: Adobe Illustrator 16.0.4, SVG Export Plug-In . SVG Version: 6.00 Build 0)  -->
<!DOCTYPE svg PUBLIC "-//W3C//DTD SVG 1.1//EN" "http://www.w3.org/Graphics/SVG/1.1/DTD/svg11.dtd">
<svg version="1.1" id="Layer_1" xmlns="http://www.w3.org/2000/svg" xmlns:xlink="http://www.w3.org/1999/xlink" x="0px" y="0px"
	 width="2763.276px" height="605.032px" viewBox="-711.751 115.75 2763.276 605.032"
	 enable-background="new -711.751 115.75 2763.276 605.032" xml:space="preserve">
<path opacity="0.1" fill="#FFFFFF" d="M-612.742,276.738c-11.607,0-11.607,18,0,18S-601.134,276.738-612.742,276.738z"/>
<path opacity="0.1" fill="#FFFFFF" d="M-540.734,387.749c-11.607,0-11.607,18,0,18S-529.127,387.749-540.734,387.749z"/>
<path opacity="0.1" fill="#FFFFFF" d="M-600.74,537.764c-11.607,0-11.607,18,0,18S-589.133,537.764-600.74,537.764z"/>
<path opacity="0.1" fill="#FFFFFF" d="M-447.725,627.773c-11.607,0-11.607,18,0,18S-436.118,627.773-447.725,627.773z"/>
<path opacity="0.1" fill="#FFFFFF" d="M-294.71,414.751c-11.607,0-11.607,18,0,18S-283.103,414.751-294.71,414.751z"/>
<path opacity="0.1" fill="#FFFFFF" d="M-57.686,636.774c-11.607,0-11.607,18,0,18S-46.079,636.774-57.686,636.774z"/>
<path opacity="0.1" fill="#FFFFFF" d="M263.346,339.745c-11.607,0-11.607,18,0,18S274.954,339.745,263.346,339.745z"/>
<path opacity="0.1" fill="#FFFFFF" d="M506.37,633.774c-11.607,0-11.607,18,0,18S517.978,633.774,506.37,633.774z"/>
<path opacity="0.1" fill="#FFFFFF" d="M995.419,315.742c-11.607,0-11.607,18,0,18S1007.026,315.742,995.419,315.742z"/>
<path opacity="0.1" fill="#FFFFFF" d="M1265.446,216.732c-11.607,0-11.607,18,0,18S1277.054,216.732,1265.446,216.732z"/>
<path opacity="0.1" fill="#FFFFFF" d="M1433.463,438.754c-11.607,0-11.607,18,0,18S1445.07,438.754,1433.463,438.754z"/>
<path opacity="0.1" fill="#FFFFFF" d="M1550.475,549.765c-11.607,0-11.607,18,0,18S1562.082,549.765,1550.475,549.765z"/>
<path opacity="0.1" fill="#FFFFFF" d="M1817.501,357.746c-11.607,0-11.607,18,0,18S1829.108,357.746,1817.501,357.746z"/>
<path opacity="0.1" fill="#FFFFFF" d="M1889.509,201.73c-11.607,0-11.607,18,0,18S1901.116,201.73,1889.509,201.73z"/>
<path opacity="0.1" fill="#FFFFFF" d="M1043.424,477.758c-11.607,0-11.607,18,0,18S1055.031,477.758,1043.424,477.758z"/>
<path opacity="0.1" fill="#FFFFFF" d="M440.364,258.736c-11.607,0-11.607,18,0,18S451.971,258.736,440.364,258.736z"/>
<path opacity="0.1" fill="#FFFFFF" d="M254.345,537.764c-11.607,0-11.607,18,0,18S265.953,537.764,254.345,537.764z"/>
<path opacity="0.1" fill="#FFFFFF" d="M-126.693,198.73c-11.607,0-11.607,18,0,18S-115.085,198.73-126.693,198.73z"/>
<path opacity="0.1" fill="#FFFFFF" d="M-78.688,447.754c-11.607,0-11.607,18,0,18S-67.081,447.754-78.688,447.754z"/>
<path opacity="0.1" fill="#FFFFFF" d="M776.397,402.75c-11.607,0-11.607,18,0,18S788.005,402.75,776.397,402.75z"/>
<path opacity="0.1" fill="#FFFFFF" d="M995.419,669.777c-11.607,0-11.607,18,0,18S1007.026,669.777,995.419,669.777z"/>
<path opacity="0.1" fill="#FFFFFF" d="M1235.443,372.748c-11.607,0-11.607,18,0,18S1247.051,372.748,1235.443,372.748z"/>
<path opacity="0.1" fill="#FFFFFF" d="M1376.458,570.767c-11.607,0-11.607,18,0,18S1388.065,570.767,1376.458,570.767z"/>
<path opacity="0.1" fill="#FFFFFF" d="M1601.479,228.733c-11.607,0-11.607,18,0,18S1613.087,228.733,1601.479,228.733z"/>
<path opacity="0.1" fill="#FFFFFF" d="M1955.516,585.769c-11.607,0-11.607,18,0,18S1967.123,585.769,1955.516,585.769z"/>
<path opacity="0.1" fill="#FFFFFF" d="M710.391,174.728c-11.607,0-11.607,18,0,18S721.998,174.728,710.391,174.728z"/>
<path opacity="0.1" fill="#FFFFFF" d="M521.372,429.753c-11.607,0-11.607,18,0,18S532.979,429.753,521.372,429.753z"/>
<path opacity="0.1" fill="#FFFFFF" d="M86.328,183.729c-11.607,0-11.607,18,0,18S97.936,183.729,86.328,183.729z"/>
<path opacity="0.1" fill="#FFFFFF" d="M62.326,354.746c-11.607,0-11.607,18,0,18S73.934,354.746,62.326,354.746z"/>
<path opacity="0.1" fill="#FFFFFF" d="M-228.703,321.743c-11.607,0-11.607,18,0,18S-217.096,321.743-228.703,321.743z"/>
<path opacity="0.1" fill="#FFFFFF" d="M-375.718,162.726c-11.607,0-11.607,18,0,18S-364.11,162.726-375.718,162.726z"/>
<path opacity="0.1" fill="#FFFFFF" d="M-384.719,339.745c-11.607,0-11.607,18,0,18S-373.111,339.745-384.719,339.745z"/>
<path opacity="0.1" fill="#FFFFFF" d="M-429.723,456.755c-11.607,0-11.607,18,0,18S-418.116,456.755-429.723,456.755z"/>
<path opacity="0.1" fill="#FFFFFF" d="M-273.708,582.768c-11.607,0-11.607,18,0,18S-262.1,582.768-273.708,582.768z"/>
<path opacity="0.1" fill="#FFFFFF" d="M5.32,531.763c-11.607,0-11.607,18,0,18S16.928,531.763,5.32,531.763z"/>
<path opacity="0.1" fill="#FFFFFF" d="M173.337,606.771c-11.607,0-11.607,18,0,18S184.944,606.771,173.337,606.771z"/>
<path opacity="0.1" fill="#FFFFFF" d="M203.34,465.756c-11.607,0-11.607,18,0,18S214.947,465.756,203.34,465.756z"/>
<path opacity="0.1" fill="#FFFFFF" d="M251.345,249.735c-11.607,0-11.607,18,0,18S262.952,249.735,251.345,249.735z"/>
<path opacity="0.1" fill="#FFFFFF" d="M353.355,165.727c-11.607,0-11.607,18,0,18S364.962,165.727,353.355,165.727z"/>
<path opacity="0.1" fill="#FFFFFF" d="M389.358,312.741h-3c-4.906,0-9,4.094-9,9c0,4.906,4.094,9,9,9h3c4.906,0,9-4.094,9-9
	C398.358,316.835,394.265,312.741,389.358,312.741z"/>
<path opacity="0.1" fill="#FFFFFF" d="M350.354,510.761c-11.607,0-11.607,18,0,18S361.962,510.761,350.354,510.761z"/>
<path opacity="0.1" fill="#FFFFFF" d="M335.354,642.774c-11.607,0-11.607,18,0,18S346.961,642.774,335.354,642.774z"/>
<path opacity="0.1" fill="#FFFFFF" d="M740.394,573.767c-11.607,0-11.607,18,0,18S752.001,573.767,740.394,573.767z"/>
<path opacity="0.1" fill="#FFFFFF" d="M677.388,282.738c-11.607,0-11.607,18,0,18S688.995,282.738,677.388,282.738z"/>
<path opacity="0.1" fill="#FFFFFF" d="M1064.427,174.728c-11.607,0-11.607,18,0,18S1076.034,174.728,1064.427,174.728z"/>
<path opacity="0.1" fill="#FFFFFF" d="M944.414,465.756c-11.607,0-11.607,18,0,18S956.021,465.756,944.414,465.756z"/>
<path opacity="0.1" fill="#FFFFFF" d="M1196.439,588.769c-11.607,0-11.607,18,0,18S1208.047,588.769,1196.439,588.769z"/>
<path opacity="0.1" fill="#FFFFFF" d="M1427.463,255.736c-11.607,0-11.607,18,0,18S1439.07,255.736,1427.463,255.736z"/>
<path opacity="0.1" fill="#FFFFFF" d="M1670.487,423.752c-11.607,0-11.607,18,0,18S1682.095,423.752,1670.487,423.752z"/>
<path opacity="0.1" fill="#FFFFFF" d="M1709.491,636.774c-11.607,0-11.607,18,0,18S1721.099,636.774,1709.491,636.774z"/>
<path opacity="0.1" fill="#FFFFFF" d="M1859.506,459.756c-11.607,0-11.607,18,0,18S1871.113,459.756,1859.506,459.756z"/>
<path opacity="0.1" fill="#FFFFFF" d="M1748.495,525.762c-11.607,0-11.607,18,0,18S1760.103,525.762,1748.495,525.762z"/>
<path opacity="0.1" fill="#FFFFFF" d="M1742.494,276.738c-11.607,0-11.607,18,0,18S1754.102,276.738,1742.494,276.738z"/>
<path opacity="0.1" fill="#FFFFFF" d="M1505.47,363.747c-11.607,0-11.607,18,0,18S1517.077,363.747,1505.47,363.747z"/>
<path opacity="0.1" fill="#FFFFFF" d="M1367.456,306.741c-11.607,0-11.607,18,0,18S1379.063,306.741,1367.456,306.741z"/>
<path opacity="0.1" fill="#FFFFFF" d="M1133.433,261.736c-11.607,0-11.607,18,0,18S1145.04,261.736,1133.433,261.736z"/>
<path opacity="0.1" fill="#FFFFFF" d="M1145.435,507.761c-11.607,0-11.607,18,0,18S1157.042,507.761,1145.435,507.761z"/>
<path opacity="0.1" fill="#FFFFFF" d="M818.401,234.733c-11.607,0-11.607,18,0,18S830.009,234.733,818.401,234.733z"/>
<path opacity="0.1" fill="#FFFFFF" d="M668.387,444.754c-11.607,0-11.607,18,0,18S679.994,444.754,668.387,444.754z"/>
<path opacity="0.1" fill="#FFFFFF" d="M590.379,558.766c-11.607,0-11.607,18,0,18S601.986,558.766,590.379,558.766z"/>
<path opacity="0.1" fill="#FFFFFF" d="M887.408,555.766c-11.607,0-11.607,18,0,18S899.016,555.766,887.408,555.766z"/>
</svg>
